#!OML:ASF E:\Steps\Project 1\Capture day 1\Session 2\Subject.ASF
:FULLY-SPECIFIED
:DEGREES
116
root 8.7468 16.3059 30.2514 -151.622 0.848292 -179.85
lowerback -30.4016 -2.18765 -4.20807
upperback -2.70885 -0.466858 0.146722
thorax 12.9664 -0.0210797 2.35357
lowerneck 0.994968 -1.79254 -4.29955
upperneck -11.7386 -1.17267 8.30329
head -3.55102 -0.511336 3.26443
rclavicle -3.57812e-015 1.66979e-014
rhumerus -34.7843 -18.401 -80.5025
rradius 28.2059
rwrist 0.406575
rhand -9.26086 -51.6128
rfingers 7.12502
rthumb 16.6953 -80.9149
lclavicle -3.57812e-015 1.66979e-014
lhumerus -29.152 6.19839 82.5902
lradius 18.6208
lwrist -7.19632
lhand -21.4468 -14.5428
lfingers 7.12502
lthumb 4.94295 15.3795
rfemur -24.8307 7.93777 18.0279
rtibia 7.95816
rfoot -20.1223 -10.1953
rtoes -30.6585
lfemur -24.1351 -8.22857 -17.8521
ltibia 6.68885
lfoot -8.64062 4.69599
ltoes -40.7347
117
root 8.74804 16.307 30.2476 -151.651 0.803124 -179.852
lowerback -30.425 -2.19728 -4.19973
upperback -2.6936 -0.48109 0.140869
thorax 12.9948 -0.0282787 2.33711
lowerneck 0.952835 -1.77084 -4.29407
upperneck -11.6577 -1.15102 8.2989
head -3.52129 -0.500671 3.26021
rclavicle -1.49089e-015 1.15295e-014
rhumerus -34.7956 -18.4335 -80.523
rradius 28.2146
rwrist 0.393542
rhand -9.28036 -51.5575
rfingers 7.12502
rthumb 16.6765 -80.8612
lclavicle -1.49089e-015 1.15295e-014
lhumerus -29.2146 6.009 82.6729
lradius 18.6887
lwrist -6.91506
lhand -21.7362 -14.5486
lfingers 7.12502
lthumb 4.66354 15.3801
rfemur -24.7558 7.79243 18.0916
rtibia 7.92319
rfoot -20.0722 -10.1464
rtoes -31.0311
lfemur -24.0777 -8.28974 -17.8176
ltibia 6.6618
lfoot -8.69785 4.66996
ltoes -40.1303
118
root 8.74956 16.3081 30.2468 -151.69 0.747923 -179.841
lowerback -30.4032 -2.20933 -4.19293
upperback -2.67427 -0.505615 0.148171
thorax 13.009 -0.0417752 2.33169
lowerneck 0.910727 -1.7376 -4.29108
upperneck -11.6077 -1.11256 8.27167
head -3.50218 -0.480195 3.24928
rclavicle 3.42904e-015 -1.51076e-014
rhumerus -34.8281 -18.3615 -80.5392
rradius 28.2764
rwrist 0.362461
rhand -9.30818 -51.5002
rfingers 7.12502
rthumb 16.6498 -80.806
lclavicle 3.42904e-015 -1.51076e-014
lhumerus -29.2351 5.89554 82.7148
lradius 18.7688
lwrist -6.85839
lhand -21.8306 -14.3416
lfingers 7.12502
lthumb 4.57238 15.5891
rfemur -24.7013 7.63864 18.178
rtibia 7.93373
rfoot -20.0695 -10.0813
rtoes -31.2564
lfemur -24.0314 -8.32532 -17.7737
ltibia 6.65967
lfoot -8.74801 4.59815
ltoes -39.3146
119
root 8.75063 16.3082 30.2485 -151.73 0.723856 -179.897
lowerback -30.3473 -2.22908 -4.25288
upperback -2.66237 -0.515495 0.131085
thorax 12.9987 -0.0507494 2.34192
lowerneck 0.890607 -1.72766 -4.27191
upperneck -11.619 -1.09333 8.27698
head -3.50353 -0.470131 3.24706
rclavicle -6.16232e-015 -2.10712e-014
rhumerus -34.8303 -18.448 -80.519
rradius 28.2678
rwrist 0.454564
rhand -9.32456 -51.4265
rfingers 7.12502
rthumb 16.634 -80.7337
lclavicle -6.16232e-015 -2.10712e-014
lhumerus -29.1974 5.84193 82.7351
lradius 18.7466
lwrist -6.78686
lhand -21.796 -14.6592
lfingers 7.12502
lthumb 4.60576 15.2707
rfemur -24.6656 7.80544 18.0743
rtibia 7.9475
rfoot -20.1605 -10.2485
rtoes -30.852
lfemur -24.0074 -8.30996 -17.8445
ltibia 6.66128
lfoot -8.72515 4.55841
ltoes -39.5695
120
root 8.75126 16.3076 30.2485 -151.736 0.727151 -179.951
lowerback -30.3439 -2.22632 -4.29878
upperback -2.66351 -0.492877 0.111561
thorax 12.9944 -0.0419874 2.35452
lowerneck 0.849113 -1.70895 -4.28357
upperneck -11.5883 -1.06895 8.27726
head -3.48886 -0.456356 3.24765
rclavicle -6.95746e-015 -1.23246e-014
rhumerus -34.8299 -18.5146 -80.4906
rradius 28.248
rwrist 0.435306
rhand -9.33582 -51.4005
rfingers 7.12502
rthumb 16.6232 -80.7086
lclavicle -6.95746e-015 -1.23246e-014
lhumerus -29.13 5.98698 82.6752
lradius 18.6914
lwrist -7.14572
lhand -21.494 -14.9329
lfingers 7.12502
lthumb 4.89736 14.9905
rfemur -24.6595 7.88568 17.9786
rtibia 7.93977
rfoot -20.196 -10.3283
rtoes -30.5156
lfemur -24.0071 -8.33143 -17.902
ltibia 6.64136
lfoot -8.69972 4.56752
ltoes -39.7084
121
root 8.75184 16.3083 30.2464 -151.767 0.715756 -179.928
lowerback -30.353 -2.19247 -4.25875
upperback -2.64052 -0.463215 0.0958193
thorax 13.0221 -0.0288698 2.32715
lowerneck 0.790221 -1.70219 -4.29425
upperneck -11.5485 -1.0599 8.28386
head -3.46753 -0.449836 3.25021
rclavicle 9.44227e-016 1.43125e-014
rhumerus -34.8168 -18.5317 -80.5102
rradius 28.259
rwrist 0.326066
rhand -9.3566 -51.3669
rfingers 7.12502
rthumb 16.6031 -80.6767
lclavicle 9.44227e-016 1.43125e-014
lhumerus -29.071 6.19993 82.5718
lradius 18.6952
lwrist -7.57131
lhand -21.2308 -14.8327
lfingers 7.12502
lthumb 5.15153 15.0847
rfemur -24.597 7.62825 18.0897
rtibia 7.90997
rfoot -20.1452 -10.0894
rtoes -30.8552
lfemur -23.9478 -8.35371 -17.8648
ltibia 6.6188
lfoot -8.7183 4.5507
ltoes -39.1519
122
root 8.75234 16.3093 30.2441 -151.806 0.693793 -179.933
lowerback -30.3572 -2.1892 -4.25518
upperback -2.61652 -0.46081 0.0777062
thorax 13.0508 -0.0298501 2.30643
lowerneck 0.742053 -1.69472 -4.27516
upperneck -11.5036 -1.04993 8.28844
head -3.4468 -0.444453 3.2472
rclavicle -1.59028e-015 -1.15295e-014
rhumerus -34.8229 -18.5952 -80.5202
rradius 28.2774
rwrist 0.373161
rhand -9.37754 -51.3515
rfingers 7.12502
rthumb 16.583 -80.663
lclavicle -1.59028e-015 -1.15295e-014
lhumerus -29.0883 6.13221 82.5949
lradius 18.7516
lwrist -7.27676
lhand -21.386 -14.9857
lfingers 7.12502
lthumb 5.00168 14.9352
rfemur -24.5294 7.36607 18.1744
rtibia 7.89831
rfoot -20.0884 -9.86906
rtoes -31.3955
lfemur -23.8811 -8.3509 -17.8733
ltibia 6.599
lfoot -8.73216 4.49218
ltoes -38.9076
123
root 8.75276 16.3101 30.2435 -151.811 0.668826 -179.941
lowerback -30.3444 -2.19214 -4.26402
upperback -2.62085 -0.46192 0.0779445
thorax 13.0404 -0.0303201 2.31113
lowerneck 0.764257 -1.70835 -4.255
upperneck -11.5471 -1.06035 8.30479
head -3.4628 -0.450565 3.24979
rclavicle -7.45443e-016 3.97569e-016
rhumerus -34.8315 -18.6806 -80.475
rradius 28.2559
rwrist 0.524834
rhand -9.39052 -51.3191
rfingers 7.12502
rthumb 16.5705 -80.6316
lclavicle -7.45443e-016 3.97569e-016
lhumerus -29.1305 5.83229 82.7234
lradius 18.8271
lwrist -6.69509
lhand -21.5586 -15.2147
lfingers 7.12502
lthumb 4.83498 14.7102
rfemur -24.5223 7.35942 18.1824
rtibia 7.89674
rfoot -20.0314 -9.9731
rtoes -31.8202
lfemur -23.8771 -8.37054 -17.866
ltibia 6.58859
lfoot -8.76499 4.45018
ltoes -39.0516
124
root 8.75279 16.3096 30.2428 -151.781 0.678709 -179.902
lowerback -30.3623 -2.17263 -4.22933
upperback -2.63744 -0.44616 0.0918086
thorax 13.0284 -0.0197266 2.31351
lowerneck 0.7938 -1.69752 -4.24526
upperneck -11.577 -1.04065 8.31899
head -3.47789 -0.441931 3.25255
rclavicle -9.44227e-016 -1.82882e-014
rhumerus -34.8475 -18.7741 -80.4089
rradius 28.2423
rwrist 0.681898
rhand -9.40184 -51.2434
rfingers 7.12502
rthumb 16.5596 -80.5568
lclavicle -9.44227e-016 -1.82882e-014
lhumerus -29.1206 5.71658 82.775
lradius 18.8118
lwrist -6.5237
lhand -21.5766 -15.2647
lfingers 7.12502
lthumb 4.8176 14.6605
rfemur -24.5522 7.54951 18.1848
rtibia 7.88034
rfoot -20.0222 -10.1887
rtoes -32.007
lfemur -23.9028 -8.37657 -17.8139
ltibia 6.56585
lfoot -8.75955 4.475
ltoes -38.9743
125
root 8.75288 16.3073 30.2414 -151.713 0.712158 -179.896
lowerback -30.4492 -2.16836 -4.2263
upperback -2.65934 -0.429252 0.0950058
thorax 13.0405 -0.00816868 2.32195
lowerneck 0.797671 -1.64682 -4.24138
upperneck -11.5537 -0.976343 8.30293
head -3.47599 -0.41026 3.24492
rclavicle -5.36719e-015 1.55052e-014
rhumerus -34.8798 -18.8448 -80.3618
rradius 28.2442
rwrist 0.736864
rhand -9.41166 -51.1899
rfingers 7.12502
rthumb 16.5501 -80.5041
lclavicle -5.36719e-015 1.55052e-014
lhumerus -29.0889 5.80848 82.7442
lradius 18.6996
lwrist -6.63577
lhand -21.5469 -15.4558
lfingers 7.12502
lthumb 4.84625 14.4688
rfemur -24.6164 7.718 18.1277
rtibia 7.89283
rfoot -20.1355 -10.2348
rtoes -31.4601
lfemur -23.9611 -8.33239 -17.8291
ltibia 6.56337
lfoot -8.70111 4.51319
ltoes -38.8712
126
root 8.75372 16.3051 30.2397 -151.714 0.691025 -179.907
lowerback -30.4358 -2.16122 -4.19237
upperback -2.69034 -0.42124 0.0587498
thorax 12.9981 0.00205576 2.26798
lowerneck 0.842783 -1.6655 -4.20215
upperneck -11.6127 -0.988457 8.34232
head -3.50027 -0.419028 3.25181
rclavicle 3.32964e-015 -7.15625e-015
rhumerus -34.9203 -18.8909 -80.3903
rradius 28.2014
rwrist 0.706816
rhand -9.43203 -51.1615
rfingers 7.12502
rthumb 16.5305 -80.4773
lclavicle 3.32964e-015 -7.15625e-015
lhumerus -29.1013 6.03309 82.5784
lradius 18.6425
lwrist -7.12716
lhand -21.2467 -15.3892
lfingers 7.12502
lthumb 5.13613 14.5286
rfemur -24.5854 7.76247 18.1058
rtibia 7.88706
rfoot -20.193 -10.2279
rtoes -31.0774
lfemur -23.9496 -8.30135 -17.8524
ltibia 6.5869
lfoot -8.61267 4.5204
ltoes -39.5196
127
root 8.75477 16.3053 30.2383 -151.76 0.625383 -179.846
lowerback -30.3391 -2.14315 -4.0443
upperback -2.72492 -0.446962 0.0259039
thorax 12.9168 0.00163392 2.14303
lowerneck 0.868964 -1.69445 -4.1673
upperneck -11.6269 -1.01787 8.39819
head -3.50664 -0.4371 3.26436
rclavicle -6.36111e-015 -1.19271e-015
rhumerus -34.9995 -18.8234 -80.4843
rradius 28.2284
rwrist 0.695356
rhand -9.46907 -51.1686
rfingers 7.12502
rthumb 16.4949 -80.4874
lclavicle -6.36111e-015 -1.19271e-015
lhumerus -29.1473 6.21713 82.3908
lradius 18.6828
lwrist -7.4916
lhand -20.8827 -15.1413
lfingers 7.12502
lthumb 5.48762 14.7676
rfemur -24.4979 7.79862 18.2026
rtibia 7.83517
rfoot -20.1177 -10.3136
rtoes -31.2721
lfemur -23.8986 -8.30141 -17.76
ltibia 6.57925
lfoot -8.52427 4.52192
ltoes -40.1967
128
root 8.75731 16.3071 30.2386 -151.769 0.613518 -179.82
lowerback -30.2692 -2.14123 -4.01929
upperback -2.75082 -0.455818 0.0268863
thorax 12.8572 0.000924227 2.12749
lowerneck 0.783899 -1.67419 -4.16594
upperneck -11.5034 -0.998188 8.4172
head -3.45657 -0.426892 3.2673
rclavicle -2.73329e-015 -1.27222e-014
rhumerus -35.0797 -18.679 -80.5432
rradius 28.3149
rwrist 0.587136
rhand -9.50536 -51.1639
rfingers 7.12502
rthumb 16.4599 -80.4856
lclavicle -2.73329e-015 -1.27222e-014
lhumerus -29.143 6.16492 82.39
lradius 18.7028
lwrist -7.38575
lhand -20.7908 -15.08
lfingers 7.12502
lthumb 5.57632 14.8266
rfemur -24.4837 7.90365 18.2254
rtibia 7.80781
rfoot -20.0856 -10.4371
rtoes -31.4792
lfemur -23.9034 -8.27029 -17.7089
ltibia 6.56166
lfoot -8.54073 4.47802
ltoes -40.618
129
root 8.76083 16.3063 30.2384 -151.749 0.62495 -179.845
lowerback -30.359 -2.12074 -3.99155
upperback -2.69533 -0.426001 -0.0539114
thorax 12.9565 0.0129094 2.03641
lowerneck 0.813673 -1.70856 -4.10174
upperneck -11.552 -1.0323 8.44388
head -3.4741 -0.446648 3.26648
rclavicle -1.2921e-015 1.43125e-014
rhumerus -34.9789 -18.7341 -80.7012
rradius 28.2895
rwrist 0.493422
rhand -9.51881 -51.0864
rfingers 7.12502
rthumb 16.447 -80.4092
lclavicle -1.2921e-015 1.43125e-014
lhumerus -28.9724 6.18538 82.2508
lradius 18.6694
lwrist -7.66318
lhand -20.5821 -14.7221
lfingers 7.12502
lthumb 5.7778 15.1791
rfemur -24.5085 7.98598 18.1814
rtibia 7.80512
rfoot -20.1221 -10.5387
rtoes -31.717
lfemur -23.9168 -8.22282 -17.7295
ltibia 6.52488
lfoot -8.60499 4.41283
ltoes -40.7299
